Patient4_TMGait_0pt7_01_left_48_EMG.mot
version=1
nRows=40
nColumns=33
inDegrees=no
endheader
time	1LAddLong	2LGlutMax	3LGlutMed	4LIliopsoas	5LSemiMemb	6LBicFemLong	7LRecFem	8LVastMed	9LVastLat	10LGasMed	11LTibAnt	12lTibPost	13LPeroneusLong	14LSol	15LExtDigLong	16LFlexDigLong	17RAddLong	18RGlutMax	19RGlutMed	20RIliopsoas	21RSemiMemb	22RBicFemLong	23RRecFem	24RVastMed	25RVastLat	26RGasMed	27RTibAnt	28RTibPost	29RPeroneusLong	30RSol	31RExtDigLong	32RFlexDigLong
55.73	0.005035	0.62515	0.062561	0.019836	-0.023346	-0.040283	0.054474	0.007019	0.28961	-0.04776	0.022278	0.004425	0.06424	-0.039063	0.26443	-0.000458	-0.03952	-0.089417	-0.032196	-0.10483	-0.007324	0.091553	-0.37064	0.032654	-0.045624	-0.04715	-0.59799	0.010223	-0.27939	1.3519	-0.002136	-0.011902
55.731	0.01297	0.70435	0.018921	0.005493	-0.020752	-0.002594	0.074921	0.006409	0.30533	0.002747	0.061646	0.00473	-0.010681	-0.02533	-0.059052	0.011292	-0.015717	-0.10025	0.015259	-0.14801	0.078278	-0.002747	-0.56442	-0.17609	-0.10239	-0.038605	-0.25253	-0.15762	-0.18387	1.1882	-0.000916	-0.010986
55.732	0.001373	0.70755	-0.008392	-0.004272	-0.030518	-0.003662	0.042114	0.009613	0.28748	0.021362	-0.036926	-0.005341	-0.033569	-0.017395	-0.29221	0.0177	0.010071	-0.19836	0.043945	-0.057373	0.059814	-0.049133	-0.30701	-0.2359	-0.085907	0.023956	0.60043	-0.2507	-0.21133	1.0619	-0.000916	-0.000916
55.733	-0.006866	0.70099	-0.015106	-0.028381	-0.034332	0.013885	0.046539	0.013275	0.28259	0.007629	0.018768	0.003967	0.016174	0.030365	0.57205	0.007629	0.014343	-0.1944	-0.074921	0.019836	-0.049286	-0.056915	-0.12329	-0.12482	0.015411	0.023804	1.1652	0.27084	-0.34775	0.64453	0.002136	-0.009918
55.734	-0.003052	0.70038	-0.1059	-0.013428	-0.026703	0.027771	0.034637	0.016632	0.2684	0.020447	-0.10925	0.001526	0.011292	-0.008698	-0.057526	0.016632	0.017395	-0.14664	-0.075378	0.084839	-0.12497	-0.054321	-0.034027	-0.1152	-0.010986	0.026855	1.2454	0.14847	-0.24582	-0.19333	-0.002747	-0.003662
55.735	-0.012054	0.68863	-0.12787	-0.008087	-0.028992	0.004578	0.037537	0.009308	0.25482	-0.036316	-0.098724	0.003815	-0.04776	-0.058746	0.1738	0.017853	0.027161	-0.19577	0.24811	0.12604	-0.25207	-0.12146	-0.045624	-0.10788	0.04303	0.026093	0.72617	-0.003357	-0.068817	-0.9877	0.002747	0.002747
55.736	-0.015717	0.62576	-0.094757	0.00885	-0.026398	-0.010223	0.046234	0.011292	0.24979	-0.12405	-0.032959	0.001831	0.010223	-0.072784	-0.42419	0.019226	0.062714	-0.22263	0.7016	0.10834	-0.3157	-0.17425	0.08728	-0.16113	0.024109	0.047302	-0.63919	-0.12085	0.089874	-0.95962	0.001221	0.013275
55.737	0.004883	0.59067	-0.054016	0.03418	-0.037994	0.010834	0.025635	0.009003	0.2478	-0.13123	-0.003815	-0.000153	0.18906	-0.10101	-0.58823	0.018463	0.071411	-0.22903	0.66971	0.041656	-0.11643	-0.22644	0.059052	-0.177	-0.071716	0.065308	-0.86075	-0.1149	0.1564	-0.46112	-0.001068	0.009003
55.738	-0.002747	0.53909	-0.067596	0.039063	-0.040131	0.020294	0.02533	0.014343	0.25146	-0.091248	-0.035095	0.003204	0.21942	-0.092926	-0.4097	0.021362	0.025635	-0.16342	0.25177	-0.026093	-0.091705	-0.1532	-0.18219	-0.18143	-0.041199	0.037231	-0.30609	0.11429	-0.009003	-0.30533	-0.001373	0.001831
55.739	-0.007019	0.49835	-0.038452	0.019531	-0.032501	0.026245	0.014191	0.007172	0.24948	-0.028229	-0.009155	0.006104	0.13001	-0.074158	-0.2446	0.020905	-0.006104	-0.11795	0.25207	-0.044403	0.000916	-0.097809	-0.21042	-0.029144	0.097809	0.028687	-0.63171	0.056763	0.018311	-0.084534	-0.001984	-0.00061
55.74	-0.012817	0.43762	-0.04776	0.005188	-0.041809	0.003052	-0.000153	0.008087	0.23651	0.029907	0.009155	0.00061	0.061951	0.006104	-0.11078	0.017548	-0.001831	-0.03067	0.2948	-0.062561	0.26382	-0.016327	-0.14038	0.1944	0.16892	0.029297	-0.42908	0.003815	0.080566	-0.16464	-0.002594	-0.012665
55.741	0.003815	0.35065	-0.040894	0	-0.027161	-0.00412	-0.007019	0.009003	0.23407	0.079803	-0.046082	0.005646	0.033569	0.000916	-0.004425	0.015717	-0.023499	-0.048218	0.36407	-0.032806	0.27344	0.032196	-0.091705	0.16129	0.12848	0.00824	-0.90012	-0.017548	0.085297	-0.3154	-0.001373	-0.018463
55.742	0.000153	0.31494	-0.071259	-0.004425	-0.030823	-0.007782	-0.010376	0.00946	0.23483	0.092773	-0.025787	-0.008392	-0.005035	0.001831	0.063171	0.01236	-0.037994	0.023041	0.18448	-0.012512	0.21072	0.053711	-0.15945	0.13367	0.1091	-0.001678	-0.64438	-0.024567	0.21957	-0.33829	-0.001678	-0.008392
55.743	0.002441	0.2829	-0.046844	0.015869	-0.039215	-0.032501	-0.041962	0.004578	0.22369	0.061951	-0.014191	0.000916	-0.005035	-0.083313	0.082703	0.006409	0.009918	-0.018158	0.14923	0.023651	0.016937	-0.079041	-0.062866	0.058136	0.086975	0.007019	0.20889	-0.035553	0.46097	-0.27542	-0.001526	-0.00473
55.744	0.001678	0.19623	-0.13229	0.010223	-0.028992	-0.037537	-0.031586	0.011139	0.22537	-0.037689	0.025787	0.007629	-0.005035	-0.11765	0.080109	0.010529	0.076752	0.027313	0.061035	0.05722	-0.027771	-0.092468	0.065918	-0.084381	0.061951	0.010071	0.27924	-0.050354	0.53925	-0.35538	-0.002594	-0.002747
55.745	0.001068	0.20538	-0.15259	-0.0177	-0.02594	-0.028839	-0.047607	0.005493	0.215	-0.007477	0.060272	0.002441	-0.022125	0.021667	0.12497	0.015564	0.06424	0.16388	0.14053	0.028534	-0.073853	-0.063477	0.034637	-0.11093	0.066681	-0.08606	-0.15091	-0.057831	0.28091	-0.47287	-0.001221	0.000916
55.746	-0.002899	0.15793	-0.089111	-0.007935	-0.037689	-0.05127	-0.043793	0.01236	0.21301	-0.032806	0.063477	0.001831	-0.018768	0.059509	0.13718	0.017548	-0.011902	0.14374	0.34012	-0.053253	-0.17151	-0.17731	-0.089874	0.074615	0.069275	-0.13046	0.24765	-0.067139	0.009003	-0.43732	-0.007019	-0.016174
55.747	-0.003815	0.083313	-0.041351	-0.004272	-0.031433	-0.045624	-0.059814	0.007782	0.20584	-0.007477	0.040741	0.006866	0.039368	0.005188	0.13428	0.011597	-0.055237	0.15945	0.31372	-0.087433	-0.31433	-0.041046	-0.093689	0.12985	0.09903	-0.2002	0.39536	-0.049286	-0.046082	-0.93887	0.009308	-0.016937
55.748	-0.000763	0.052643	-0.054779	0.003815	-0.023651	-0.04303	-0.051422	0.003815	0.2066	0.022736	0.041656	0.00473	0.029755	-0.029297	0.15213	0.004272	-0.10361	0.1149	0.19318	0.006714	-0.25085	0.021667	-0.046082	0.25177	0.093079	-0.21469	-0.059357	0.042419	-0.01297	-1.4008	-0.003204	-0.024567
55.749	0.005493	0.007172	0.048065	-0.002899	-0.017853	-0.040588	-0.077362	0.010986	0.19714	0.003357	0.006714	0.001068	0.02594	-0.080109	0.19653	0.020752	-0.082245	0.075531	-0.078583	0.072632	0.11276	0.065002	-0.004883	0.27405	0.057831	-0.14618	-0.17349	-0.023499	0.03418	-0.84518	-0.000305	-0.018463
55.75	0.007324	-0.040436	0.04837	0.006866	-0.026093	-0.05188	-0.059204	0.00824	0.1918	0.016174	0.021057	-0.000305	0.016479	-0.062714	0.21316	0.006561	-0.03479	0.092316	0.032806	0.10223	0.10681	0.10803	0.050964	0.17441	0.033112	0.037384	-0.029144	0.016174	-0.044098	0.66483	0.000458	-0.015564
55.751	0.006561	-0.081635	0.023499	-0.003815	-0.026093	-0.050659	-0.071869	0.016632	0.17746	-0.028229	0.036469	-0.002594	0.018463	-0.005035	0.15381	-0.00824	-0.023651	0.14511	0.11002	0.10162	0.12222	0.16525	0.084381	0.10056	0.022583	0.13947	0.15182	-0.023804	-0.11643	2.4658	0.000305	-0.007629
55.752	0.007172	-0.094147	0.006409	0.00473	-0.016327	-0.037842	-0.080719	0.00412	0.16281	-0.049133	0.036469	-0.006409	-0.000153	0.008392	0.40298	-0.005798	-0.010376	0.087433	-0.063629	0.041962	0.085297	0.19867	0.1535	0.004578	0.008698	0.046387	0.22812	0.028534	-0.15274	2.6689	-0.000153	0.000916
55.753	0.015259	-0.12756	-0.078278	0.002289	-0.016937	-0.024414	-0.085754	0.003815	0.15091	-0.06134	0.045776	-0.009308	-0.006409	0.049133	0.068207	0.002289	-0.002747	-0.11566	-0.071869	-0.076599	-0.049286	0.097656	0.21408	0.014191	0.019684	0.048981	0.49057	-0.023651	-0.18799	1.7651	-0.001831	-0.005798
55.754	0.005188	-0.14954	-0.13962	0.004578	-0.016785	-0.0177	-0.090942	0.003204	0.1445	-0.041504	0.092773	-0.013428	0.002136	0.030518	0.14557	0.007782	-0.014954	-0.20721	-0.032196	-0.11002	-0.18112	0.13397	0.19272	-0.028381	0.014954	0.045471	0.2594	0.066986	-0.24017	1.2183	-0.002441	-0.000916
55.755	0.009003	-0.13046	-0.17273	0.008392	-0.013885	-0.025787	-0.066681	0.000763	0.15747	-0.004425	0.14389	-0.000305	0.007019	-0.03952	-0.23895	0.004272	0.00351	-0.16327	-0.11551	-0.030212	-0.25146	0.15884	0.20447	-0.13657	-0.030518	0.11032	0.44937	0.023956	-0.21103	0.30701	-0.001068	0.001678
55.756	0.004272	-0.097809	-0.16953	-0.010376	-0.030212	-0.042877	-0.075531	0.007935	0.1506	0.017853	0.080566	-0.010376	-0.012665	-0.12634	-0.18829	-0.010223	-0.019684	-0.10223	0.053711	0.055695	-0.092163	-0.020599	0.41672	-0.17532	-0.12085	0.053711	0.35339	0.02121	-0.21408	0.21866	-0.001068	-0.00946
55.757	0.008545	-0.10544	-0.13382	-0.006409	-0.043793	-0.086975	-0.082855	-0.000763	0.16266	0.015411	-0.069275	-0.005798	0.051575	-0.18768	-0.006561	-0.010529	-0.027466	-0.034027	0.32257	0.16083	0.22201	-0.18326	0.45075	-0.11887	-0.15625	0.000153	0.40314	-0.011749	-0.14191	-0.056915	-0.00061	-0.009613
55.758	0.007629	-0.12329	-0.035858	-0.014801	-0.0354	-0.086823	-0.068054	0.003052	0.14725	0.00885	-0.092621	-0.006866	0.078888	-0.15869	-0.055695	-0.021973	-0.037994	0.066986	0.36789	0.080414	0.25559	-0.099182	0.35095	-0.081787	-0.27603	0.05127	0.84793	-0.000153	-0.0737	-0.37399	-0.001831	-0.00351
55.759	0.019226	-0.11368	-0.10712	0.005798	-0.023193	-0.055847	-0.066833	0.006866	0.16037	0.013428	-0.011597	-0.010223	0.077972	0.002747	-0.15015	-0.006561	-0.00885	0.06485	0.20416	0.027618	0.10864	-0.28275	0.03067	-0.078583	-0.31769	0.033875	0.44464	0.012054	-0.010529	-0.63095	0.000305	-0.001526
55.76	0.016479	-0.091248	-0.059357	0.002899	-0.024109	-0.063629	-0.065918	0.003662	0.16144	0.001831	0.017548	-0.01297	0.074768	0.12619	-0.11597	0.004272	-0.016937	0.061493	-0.21973	0.041199	0.033264	-0.43869	0.003204	-0.11917	-0.19211	0.01358	-0.76324	0.001221	0.12848	-0.6041	0.002441	-0.007324
55.761	0.027313	-0.11673	-0.084991	-0.011292	-0.032349	-0.07431	-0.065002	0.007782	0.15533	0.001831	0.007324	-0.001221	0.082855	0.087433	-0.19974	-0.015259	-0.036316	0.019073	-0.18601	0.011444	0.041199	-0.46875	0.035858	-0.12299	-0.21301	0.011139	-0.95871	0.002899	0.2269	-0.081024	0.00061	-0.00412
55.762	0.011902	-0.092773	0.074463	0.000763	-0.019531	-0.079193	-0.061646	-0.002441	0.16846	-0.009155	-0.00412	-0.007019	0.084991	0.002289	-0.26977	-0.012207	-0.032043	0.094299	-0.13702	-0.024414	-0.093536	-0.44022	-0.28336	-0.04837	-0.039978	-0.023193	-1.1658	-0.01297	0.27771	-0.15991	-0.001068	0.002899
55.763	0.018158	-0.1535	0.063477	0.000458	-0.014191	-0.087585	-0.09079	-0.028534	0.15747	0.006714	-0.007172	-0.006256	0.08316	0.004883	-0.168	-0.000458	0.025787	0.11154	-0.2449	-0.010071	-0.042267	-0.39932	-0.43854	-0.01236	0.32501	-0.00351	-0.27176	-0.009766	0.2066	-0.37552	-0.001068	-0.002441
55.764	0.018005	-0.13489	0.10346	-0.006409	0.006256	-0.091858	-0.058441	-0.001373	0.15396	-0.019836	-0.001373	-0.009003	0.088196	0.053253	-0.075378	0.012512	0.048523	0.16464	-0.20081	-0.046387	-0.087128	-0.3305	-0.26611	-0.037079	0.31754	0.042114	-0.29816	-0.010071	0.075531	-0.067749	-0.002289	0.004272
55.765	0.010529	-0.13046	0.06546	-0.009155	-0.001678	-0.09079	-0.061646	0.017548	0.14999	-0.046844	0.010223	-0.008545	0.086212	0.13626	0.047913	0.017242	-0.007324	0.23789	-0.2449	-0.031586	-0.009155	-0.20981	-0.28183	-0.001373	0.17197	0.087738	-0.6807	-0.014343	-0.12894	-0.066071	0.004272	0.003967
55.766	0.007324	-0.11124	0.040131	-0.016174	0.008087	-0.085602	-0.062561	-0.005646	0.13519	-0.033417	0.006561	-0.009003	0.1358	0.078278	0.082397	0.007324	-0.017395	0.27954	-0.039978	-0.061646	-0.015259	-0.10193	-0.29022	-0.063934	0.11337	0.032349	-0.38773	-0.010834	-0.32577	-0.098114	-0.001068	-0.006409
55.767	-0.005646	-0.13916	0.027466	-0.015259	0.004578	-0.068207	-0.05661	-0.011292	0.13138	0.010376	0.018005	-0.006104	0.13016	-0.14023	0.10559	0.011902	-0.0177	0.30655	-0.12177	-0.028381	0.04425	0.47241	-0.19867	0.09903	0.1767	0.007935	0.000153	-0.014038	-0.23025	-0.075836	-0.001831	-0.005341
55.768	-0.005341	-0.098419	-0.097961	-0.00061	-0.05188	-0.046082	-0.085297	0.003204	0.11566	0.031891	0.016937	-0.009766	0.077057	-0.24979	0.040436	0.006409	0.003815	0.32471	0.21637	-0.032349	0.039063	0.64117	-0.078888	0.23025	0.31021	0.005951	0.39383	-0.009613	0.011597	-0.11978	-0.003052	-0.009613
55.769	0.00824	-0.045624	-0.17517	0.004883	-0.1384	-0.046692	-0.063782	0.00473	0.10605	-0.00351	0.007324	0.005646	0.11841	-0.33249	0.028992	0.001831	0.001221	0.41855	0.439	-0.042419	0.021515	0.20905	-0.006561	0.27298	0.28229	0.018005	0.11444	-0.008545	0.078888	-0.19501	-0.001831	-0.009918
